<?xml version="1.0" standalone="no"?>
<!DOCTYPE svg PUBLIC "-//W3C//DTD SVG 20010904//EN"
 "http://www.w3.org/TR/2001/REC-SVG-20010904/DTD/svg10.dtd">
<svg version="1.0" xmlns="http://www.w3.org/2000/svg"
 width="802.000000pt" height="802.000000pt" viewBox="0 0 802.000000 802.000000"
 preserveAspectRatio="xMidYMid meet">
<metadata>
Created by potrace 1.14, written by Peter Selinger 2001-2017
</metadata>
<g transform="translate(0.000000,802.000000) scale(0.100000,-0.100000)"
fill="#000000" stroke="none">
<path d="M2538 7823 c7 -3 16 -2 19 1 4 3 -2 6 -13 5 -11 0 -14 -3 -6 -6z"/>
<path d="M3194 7756 c-39 -17 -71 -58 -84 -106 -7 -26 -9 -1080 -8 -3192 3
-2966 4 -3156 20 -3211 35 -115 113 -228 202 -291 54 -39 1346 -666 1399 -680
45 -11 101 10 140 53 30 33 36 49 42 103 3 34 5 1469 3 3188 -3 3017 -4 3127
-22 3180 -45 135 -119 237 -219 303 -28 19 -344 175 -702 347 -683 328 -704
337 -771 306z"/>
<path d="M1951 7450 c-321 -155 -607 -296 -636 -315 -55 -37 -153 -132 -186
-181 -39 -58 -79 -144 -101 -221 l-23 -78 0 -3090 0 -3090 25 -45 c51 -90 153
-137 245 -112 59 16 1160 549 1226 593 128 86 239 243 286 404 17 57 18 234
21 3125 2 2284 0 3079 -8 3119 -21 98 -113 170 -215 171 -45 0 -107 -27 -634
-280z"/>
<path d="M6141 7449 c-322 -154 -608 -296 -638 -315 -29 -20 -84 -70 -123
-111 -77 -83 -134 -187 -167 -303 -17 -62 -18 -200 -18 -3155 l0 -3090 25 -45
c51 -90 153 -137 245 -112 55 15 1157 546 1222 589 123 81 231 228 285 388
l23 70 3 3060 c2 1683 0 3083 -3 3112 -13 109 -108 193 -220 193 -45 0 -106
-27 -634 -281z"/>
<path d="M1169 7143 c-13 -16 -12 -17 4 -4 16 13 21 21 13 21 -2 0 -10 -8 -17
-17z"/>
<path d="M5329 7113 l-34 -38 38 34 c34 33 42 41 34 41 -2 0 -19 -17 -38 -37z"/>
<path d="M1109 7083 c-13 -16 -12 -17 4 -4 16 13 21 21 13 21 -2 0 -10 -8 -17
-17z"/>
<path d="M912 6620 c0 -14 2 -19 5 -12 2 6 2 18 0 25 -3 6 -5 1 -5 -13z"/>
<path d="M1000 305 c13 -14 26 -25 28 -25 3 0 -5 11 -18 25 -13 14 -26 25 -28
25 -3 0 5 -11 18 -25z"/>
<path d="M5180 316 c0 -2 8 -10 18 -17 15 -13 16 -12 3 4 -13 16 -21 21 -21
13z"/>
<path d="M1213 213 c9 -2 23 -2 30 0 6 3 -1 5 -18 5 -16 0 -22 -2 -12 -5z"/>
<path d="M5403 213 c9 -2 23 -2 30 0 6 3 -1 5 -18 5 -16 0 -22 -2 -12 -5z"/>
</g>
</svg>
