<svg xmlns="http://www.w3.org/2000/svg" xmlns:xlink="http://www.w3.org/1999/xlink" width="310" zoomAndPan="magnify" viewBox="0 0 232.5 300.749996" height="401" preserveAspectRatio="xMidYMid meet" version="1.0"><defs><clipPath id="d318251e17"><path d="M 78.734375 5.601562 L 153.402344 5.601562 L 153.402344 294.070312 L 78.734375 294.070312 Z M 78.734375 5.601562 " clip-rule="nonzero"/></clipPath><clipPath id="9537257f86"><path d="M 78.734375 248.722656 L 78.734375 15.15625 C 78.734375 11.921875 80.394531 8.914062 83.136719 7.191406 C 85.875 5.46875 89.304688 5.277344 92.222656 6.679688 L 139.914062 29.625 C 148.160156 33.589844 153.402344 41.929688 153.402344 51.082031 L 153.402344 284.644531 C 153.402344 287.882812 151.742188 290.890625 149.003906 292.613281 C 146.261719 294.332031 142.832031 294.527344 139.914062 293.125 L 92.222656 270.179688 C 83.976562 266.214844 78.734375 257.871094 78.734375 248.722656 Z M 78.734375 248.722656 " clip-rule="nonzero"/></clipPath><clipPath id="d316291b64"><path d="M 78.734375 5.511719 L 153.574219 5.511719 L 153.574219 295 L 78.734375 295 Z M 78.734375 5.511719 " clip-rule="nonzero"/></clipPath><clipPath id="5e8f7c41f9"><path d="M 78.734375 248.71875 L 78.734375 15.175781 C 78.734375 11.9375 80.394531 8.929688 83.132812 7.207031 C 85.875 5.488281 89.304688 5.292969 92.21875 6.695312 L 139.910156 29.640625 C 148.15625 33.605469 153.398438 41.945312 153.398438 51.09375 L 153.398438 284.640625 C 153.398438 287.875 151.734375 290.882812 148.996094 292.605469 C 146.257812 294.324219 142.824219 294.519531 139.910156 293.117188 L 92.21875 270.175781 C 83.976562 266.207031 78.734375 257.867188 78.734375 248.71875 Z M 78.734375 248.71875 " clip-rule="nonzero"/></clipPath><clipPath id="edac96f7e4"><path d="M 157.144531 7.015625 L 231.8125 7.015625 L 231.8125 292.863281 L 157.144531 292.863281 Z M 157.144531 7.015625 " clip-rule="nonzero"/></clipPath><clipPath id="2f47cdacf5"><path d="M 231.8125 244.984375 L 231.8125 19.019531 C 231.8125 14.972656 229.734375 11.214844 226.3125 9.0625 C 222.886719 6.910156 218.597656 6.667969 214.953125 8.417969 L 174.003906 28.121094 C 163.695312 33.078125 157.144531 43.503906 157.144531 54.941406 L 157.144531 280.910156 C 157.144531 284.953125 159.222656 288.714844 162.644531 290.867188 C 166.070312 293.019531 170.359375 293.261719 174.003906 291.507812 L 214.953125 271.808594 C 225.257812 266.847656 231.8125 256.421875 231.8125 244.984375 Z M 231.8125 244.984375 " clip-rule="nonzero"/></clipPath><clipPath id="1fc8d64ee9"><path d="M 157 7.054688 L 231.8125 7.054688 L 231.8125 293 L 157 293 Z M 157 7.054688 " clip-rule="nonzero"/></clipPath><clipPath id="b716778b4d"><path d="M 231.8125 244.976562 L 231.8125 19.027344 C 231.8125 14.984375 229.734375 11.222656 226.3125 9.074219 C 222.886719 6.921875 218.597656 6.679688 214.953125 8.429688 L 174.007812 28.128906 C 163.703125 33.085938 157.148438 43.511719 157.148438 54.949219 L 157.148438 280.898438 C 157.148438 284.941406 159.226562 288.703125 162.652344 290.855469 C 166.074219 293.007812 170.363281 293.25 174.007812 291.496094 L 214.953125 271.796875 C 225.261719 266.839844 231.8125 256.414062 231.8125 244.976562 Z M 231.8125 244.976562 " clip-rule="nonzero"/></clipPath><clipPath id="c84385c506"><path d="M 0 7.015625 L 74.667969 7.015625 L 74.667969 292.863281 L 0 292.863281 Z M 0 7.015625 " clip-rule="nonzero"/></clipPath><clipPath id="cce529484d"><path d="M 74.667969 244.984375 L 74.667969 19.019531 C 74.667969 14.972656 72.589844 11.214844 69.164062 9.0625 C 65.742188 6.910156 61.449219 6.667969 57.804688 8.417969 L 16.855469 28.121094 C 6.550781 33.078125 -0.00390625 43.503906 -0.00390625 54.941406 L -0.00390625 280.910156 C -0.00390625 284.953125 2.074219 288.714844 5.5 290.867188 C 8.921875 293.019531 13.210938 293.261719 16.855469 291.507812 L 57.804688 271.808594 C 68.113281 266.847656 74.667969 256.421875 74.667969 244.984375 Z M 74.667969 244.984375 " clip-rule="nonzero"/></clipPath><clipPath id="54ea40ea3e"><path d="M 0 7.054688 L 74.667969 7.054688 L 74.667969 293 L 0 293 Z M 0 7.054688 " clip-rule="nonzero"/></clipPath><clipPath id="19de2e8f4c"><path d="M 74.667969 244.976562 L 74.667969 19.027344 C 74.667969 14.984375 72.589844 11.222656 69.164062 9.074219 C 65.742188 6.921875 61.453125 6.679688 57.808594 8.429688 L 16.863281 28.128906 C 6.554688 33.085938 0.00390625 43.511719 0.00390625 54.949219 L 0.00390625 280.898438 C 0.00390625 284.941406 2.082031 288.703125 5.503906 290.855469 C 8.929688 293.007812 13.21875 293.25 16.863281 291.496094 L 57.808594 271.796875 C 68.113281 266.839844 74.667969 256.414062 74.667969 244.976562 Z M 74.667969 244.976562 " clip-rule="nonzero"/></clipPath></defs><g clip-path="url(#d318251e17)"><g clip-path="url(#9537257f86)"><path fill="#e63946" d="M 78.734375 299.613281 L 78.734375 0.0585938 L 153.402344 0.0585938 L 153.402344 299.613281 Z M 78.734375 299.613281 " fill-opacity="1" fill-rule="nonzero"/></g></g><g clip-path="url(#d316291b64)"><g clip-path="url(#5e8f7c41f9)"><path stroke-linecap="butt" transform="matrix(0, -0.74839, 0.74839, 0, 78.733526, 299.605446)" fill="none" stroke-linejoin="miter" d="M 67.994847 0.0011343 L 380.055162 0.0011343 C 384.382157 0.0011343 388.401198 2.219437 390.703013 5.87833 C 392.999608 9.542444 393.260585 14.125195 391.386772 18.018968 L 360.727226 81.744266 C 355.429398 92.762703 344.285692 99.767319 332.061542 99.767319 L 19.996007 99.767319 C 15.674232 99.767319 11.655191 97.543797 9.353376 93.884903 C 7.056781 90.226009 6.795804 85.638039 8.669617 81.744266 L 39.323944 18.018968 C 44.626991 7.00575 55.770697 0.0011343 67.994847 0.0011343 Z M 67.994847 0.0011343 " stroke="#ffffff" stroke-width="10" stroke-opacity="1" stroke-miterlimit="4"/></g></g><g clip-path="url(#edac96f7e4)"><g clip-path="url(#2f47cdacf5)"><path fill="#000000" d="M 231.8125 0.308594 L 231.8125 299.570312 L 157.144531 299.570312 L 157.144531 0.308594 Z M 231.8125 0.308594 " fill-opacity="1" fill-rule="nonzero"/></g></g><g clip-path="url(#1fc8d64ee9)"><g clip-path="url(#b716778b4d)"><path stroke-linecap="butt" transform="matrix(0, 0.74839, -0.74839, 0, 231.813118, 0.320689)" fill="none" stroke-linejoin="miter" d="M 326.909388 0.00082562 L 24.995848 0.00082562 C 19.593629 0.00082562 14.567218 2.777618 11.696474 7.34993 C 8.82051 11.927462 8.496899 17.658511 10.83525 22.528337 L 37.157363 77.239499 C 43.780953 91.008631 57.711891 99.76701 72.994688 99.76701 L 374.908228 99.76701 C 380.310446 99.76701 385.336858 96.990218 388.212822 92.412686 C 391.088785 87.840373 391.412396 82.109324 389.068825 77.239499 L 362.746712 22.528337 C 356.123123 8.753985 342.192185 0.00082562 326.909388 0.00082562 Z M 326.909388 0.00082562 " stroke="#ffffff" stroke-width="10" stroke-opacity="1" stroke-miterlimit="4"/></g></g><g clip-path="url(#c84385c506)"><g clip-path="url(#cce529484d)"><path fill="#000000" d="M 74.667969 0.308594 L 74.667969 299.570312 L -0.00390625 299.570312 L -0.00390625 0.308594 Z M 74.667969 0.308594 " fill-opacity="1" fill-rule="nonzero"/></g></g><g clip-path="url(#54ea40ea3e)"><g clip-path="url(#19de2e8f4c)"><path stroke-linecap="butt" transform="matrix(0, 0.74839, -0.74839, 0, 74.666346, 0.320689)" fill="none" stroke-linejoin="miter" d="M 326.909388 -0.00216873 L 24.995848 -0.00216873 C 19.593629 -0.00216873 14.567218 2.774624 11.696474 7.352156 C 8.82051 11.924468 8.496899 17.655517 10.83525 22.525343 L 37.157363 77.236504 C 43.780953 91.010856 57.711891 99.764016 72.994688 99.764016 L 374.908228 99.764016 C 380.310446 99.764016 385.336858 96.987223 388.212822 92.414911 C 391.088785 87.837379 391.412396 82.10633 389.068825 77.236504 L 362.746712 22.525343 C 356.123123 8.75621 342.192185 -0.00216873 326.909388 -0.00216873 Z M 326.909388 -0.00216873 " stroke="#ffffff" stroke-width="10" stroke-opacity="1" stroke-miterlimit="4"/></g></g></svg>